<svg width="400" height="80" viewBox="0 0 400 80" fill="none" xmlns="http://www.w3.org/2000/svg">
<path d="M105 41C105.552 41 106 41.4477 106 42V56C106 57.6569 104.657 59 103 59H77.0001C75.3432 59 74.0001 57.6569 74.0001 56V42C74.0001 41.4477 74.4478 41 75.0001 41H105ZM83.0001 44C82.4478 44 82.0001 44.4477 82.0001 45V55C82.0001 55.5523 82.4478 56 83.0001 56H97.0001C97.5523 56 98.0001 55.5523 98.0001 55V45C98.0001 44.4477 97.5523 44 97.0001 44H83.0001ZM102 50C101.448 50 101 50.4477 101 51C101 51.5523 101.448 52 102 52C102.552 52 103 51.5523 103 51C103 50.4477 102.552 50 102 50ZM100 48C99.4478 48 99.0001 48.4477 99.0001 49C99.0001 49.5523 99.4478 50 100 50C100.552 50 101 49.5523 101 49C101 48.4477 100.552 48 100 48ZM104 48C103.448 48 103 48.4477 103 49C103 49.5523 103.448 50 104 50C104.552 50 105 49.5523 105 49C105 48.4477 104.552 48 104 48ZM78.0001 45C76.8955 45 76.0001 45.8954 76.0001 47C76.0001 48.1046 76.8955 49 78.0001 49C79.1046 49 80.0001 48.1046 80.0001 47C80.0001 45.8954 79.1046 45 78.0001 45ZM102 46C101.448 46 101 46.4477 101 47C101 47.5523 101.448 48 102 48C102.552 48 103 47.5523 103 47C103 46.4477 102.552 46 102 46ZM103 21C104.657 21 106 22.3431 106 24V38C106 38.5523 105.552 39 105 39H75.0001C74.4478 39 74.0001 38.5523 74.0001 38V24C74.0001 22.3431 75.3432 21 77.0001 21H103ZM81.0001 24C80.4478 24 80.0001 24.4477 80.0001 25V35C80.0001 35.5523 80.4478 36 81.0001 36H99.0001C99.5523 36 100 35.5523 100 35V25C100 24.4477 99.5523 24 99.0001 24H81.0001Z" fill="#00C900"/>
<path d="M122 34H150M150 34L145 29M150 34L145 39" stroke="#00C900" stroke-width="2"/>
<path d="M150 46H122M122 46L127 41M122 46L127 51" stroke="#00C900" stroke-width="2"/>
<path d="M233.574 46.291C233.081 45.232 232.368 43.747 231.775 42.653C231.244 41.663 230.688 40.6625 230.148 39.7115C231.931 37.5285 232.934 34.7445 232.934 31.7725C232.934 25.0095 227.757 19.7115 221.141 19.7115C219.221 19.7115 217.43 20.159 215.843 20.9565C214.78 13.804 208.987 8.5 201.781 8.5C194.728 8.5 189.028 13.586 187.792 20.507C186.225 19.664 184.438 19.1905 182.503 19.1905C175.954 19.1905 171.009 24.5725 171.009 31.7095C171.009 34.8415 172.005 37.85 173.695 40.137C173.127 41.1355 172.541 42.214 171.996 43.256C171.493 44.2155 170.903 45.2425 170.47 45.9795C168.657 47.0995 167.5 49.075 167.5 51.269C167.5 55.7365 171.531 57.535 173.868 57.535C171.531 62.6795 173.868 66.9935 181.673 66.9935H190.66C191.49 69.38 195.139 69.812 198.55 69.812H205.013C209.089 69.812 212.433 68.889 212.917 66.9935H222.246C229.93 66.9935 232.278 62.679 229.93 57.671C232.278 57.671 236.3 55.9395 236.3 51.422C236.3 49.3255 235.247 47.432 233.574 46.291Z" fill="#00C900"/>
<path d="M186.12 60.1425C186.12 60.1425 186.745 57.0775 187.065 54.458C185.722 53.708 184.093 52.128 184.093 49.5665C184.093 45.4945 188.171 44.003 188.898 44.003C188.716 43.692 186.369 39.704 186.369 39.704C186.293 39.581 186.334 39.425 186.455 39.343C188.647 37.845 189.974 34.7585 189.974 31.7085C189.974 27.0615 187.041 23.214 182.502 23.214C177.968 23.214 175.03 27.0615 175.03 31.7085C175.03 34.7585 176.36 37.845 178.553 39.347C178.666 39.4225 178.711 39.572 178.64 39.6865C177.76 41.0655 176.679 42.894 175.599 44.8115C174.54 46.677 173.282 49.1065 173.282 49.1065C172.272 49.353 171.524 50.226 171.524 51.268C171.524 52.5065 172.568 53.5115 173.869 53.5115C175.164 53.5115 176.212 52.5065 176.212 51.268C176.212 50.797 176.059 50.36 175.799 49.999C175.799 49.999 178.073 45.9225 178.136 45.81C178.201 45.7 178.25 45.652 178.3 45.6715C178.361 45.693 178.378 45.7495 178.328 45.9135C178.14 46.549 177.902 47.2665 177.902 48.89C177.902 52.746 178.711 57.964 179.061 60.1425C178.246 60.454 177.578 61.3485 177.578 61.9905C177.578 62.8185 178.583 62.974 179.824 62.974C181.067 62.974 181.797 62.8185 181.797 61.9905C181.797 61.5515 181.691 61.018 181.274 60.605L181.348 54.289C181.717 54.382 182.191 54.436 182.593 54.436C182.99 54.436 183.462 54.382 183.833 54.289L183.907 60.605C183.485 61.018 183.388 61.552 183.388 61.9905C183.388 62.8185 184.114 62.974 185.353 62.974C186.598 62.974 187.601 62.8185 187.601 61.9905C187.601 61.3485 186.985 60.4925 186.12 60.1425ZM230.514 49.255C230.514 49.255 229.187 46.311 228.238 44.5605C227.326 42.8745 226.189 40.847 225.154 39.1375C225.082 39.0205 225.128 38.865 225.245 38.7915C227.441 37.326 228.915 34.823 228.915 31.771C228.915 27.128 225.5 23.7325 221.14 23.7325C216.784 23.7325 213.359 27.2105 213.359 31.771C213.359 34.823 214.835 37.326 217.038 38.7935C217.159 38.8735 217.2 39.027 217.129 39.1525C217.129 39.1525 214.775 43.363 214.462 43.901C215.303 43.901 219.491 45.494 219.491 49.5705C219.491 52.1275 217.89 53.7075 216.407 54.464C216.77 57.06 217.449 60.142 217.449 60.142C216.586 60.492 215.964 61.348 215.964 61.988C215.964 62.818 216.973 62.9735 218.214 62.9735C219.454 62.9735 220.183 62.818 220.183 61.988C220.183 61.5515 220.081 61.0175 219.66 60.6045V54.916C220.032 55.007 220.652 55.061 221.054 55.061C221.456 55.061 222.076 55.007 222.448 54.916V60.605C222.031 61.018 221.927 61.552 221.927 61.9885C221.927 62.8185 222.655 62.974 223.898 62.974C225.139 62.974 226.142 62.8185 226.142 61.9885C226.142 61.3485 225.526 60.4925 224.661 60.1425C225.044 58.232 225.984 53.496 225.984 49.986C225.984 48.3 225.558 46.0195 225.511 45.81C225.491 45.719 225.515 45.663 225.556 45.6415C225.608 45.6155 225.679 45.6415 225.721 45.7385C225.846 45.983 228.001 50.148 228.001 50.148C227.742 50.511 227.584 50.95 227.584 51.421C227.584 52.655 228.637 53.6625 229.932 53.6625C231.229 53.6625 232.279 52.6555 232.279 51.421C232.278 50.375 231.526 49.508 230.514 49.255ZM214.52 46.819C214.52 46.819 212.607 42.658 211.288 40.1335C210.065 37.8035 207.726 34.481 206.946 33.392C206.859 33.2755 206.881 33.111 207.002 33.031C209.998 31.062 211.999 27.463 211.999 23.341C211.999 17.116 207.423 12.5185 201.78 12.5185C196.136 12.5185 191.56 17.116 191.56 23.341C191.56 27.463 193.566 31.0615 196.558 33.031C196.681 33.111 196.7 33.2755 196.618 33.392C195.836 34.4815 193.497 37.8035 192.274 40.1335C190.955 42.658 189.038 46.819 189.038 46.819C187.683 47.156 186.68 48.319 186.68 49.7195C186.68 51.3775 188.085 52.7215 189.821 52.7215C191.556 52.7215 192.966 51.377 192.966 49.7195C192.966 49.0885 192.758 48.5005 192.406 48.0185C192.406 48.0185 195.968 41.355 196.085 41.1625C196.206 40.9615 196.243 40.888 196.333 40.925C196.452 40.9745 196.394 41.083 196.338 41.2645C195.795 43.0435 195.493 45.6935 195.493 46.921C195.493 49.2815 197.267 61.995 197.267 61.995C196.111 62.462 195.285 63.6095 195.285 64.472C195.285 65.581 196.634 65.7905 198.29 65.7905C199.961 65.7905 200.989 65.581 200.989 64.472C200.989 63.8865 200.797 63.1685 200.233 62.6195V54.1575C200.728 54.2805 201.244 54.35 201.778 54.35H201.785C202.319 54.35 202.837 54.281 203.328 54.1575V62.6195C202.771 63.1685 202.578 63.886 202.578 64.472C202.578 65.581 203.605 65.7905 205.271 65.7905C206.927 65.7905 208.28 65.581 208.28 64.472C208.28 63.6095 207.45 62.462 206.292 61.995C206.292 61.995 208.071 49.2815 208.071 46.921C208.071 45.6935 207.77 43.0435 207.228 41.2645C207.172 41.083 207.109 40.975 207.232 40.925C207.323 40.8885 207.364 40.9615 207.481 41.1625C207.593 41.355 211.155 48.0185 211.155 48.0185C210.801 48.5005 210.593 49.0885 210.593 49.7195C210.593 51.3775 212.007 52.7215 213.74 52.7215C215.476 52.7215 216.885 51.377 216.885 49.7195C216.884 48.3195 215.877 47.1565 214.52 46.819Z" fill="white"/>
<path d="M201.997 30V17" stroke="#00C900" stroke-width="2"/>
<path d="M207.628 26.7543L196.37 20.2543" stroke="#00C900" stroke-width="2"/>
<path d="M207.633 20.2543L196.375 26.7543" stroke="#00C900" stroke-width="2"/>
<path d="M221.498 35V28.5" stroke="#00C900"/>
<path d="M224.314 33.3772L218.685 30.1272" stroke="#00C900"/>
<path d="M224.317 30.1272L218.688 33.3772" stroke="#00C900"/>
<path d="M182.498 35V28.5" stroke="#00C900"/>
<path d="M185.314 33.3772L179.685 30.1272" stroke="#00C900"/>
<path d="M185.317 30.1272L179.688 33.3772" stroke="#00C900"/>
<path d="M252 34H280M280 34L275 29M280 34L275 39" stroke="#00C900" stroke-width="2"/>
<path d="M280 46H252M252 46L257 41M252 46L257 51" stroke="#00C900" stroke-width="2"/>
<path d="M311.054 24.0001C315.165 24.0335 319.123 24.4762 321.428 25.5294C321.428 25.5294 325.999 27.5643 325.999 34.5059C325.999 34.5059 326.056 39.6278 325.361 43.1837C324.92 45.441 321.411 47.9109 317.382 48.3897C315.28 48.6392 313.212 48.8693 311.006 48.7686C307.41 48.6047 304.569 47.9158 304.551 47.9112C304.551 48.2605 304.572 48.5933 304.615 48.9044C305.084 52.4471 308.147 52.6599 311.047 52.7589C313.96 52.858 316.556 52.0487 316.58 52.0411L316.7 54.6739C316.674 54.6875 314.63 55.7688 311.006 55.9688C308.994 56.0788 306.497 55.9183 303.589 55.1524C297.28 53.4911 296.195 46.8005 296.029 40.0118C295.978 37.9962 296.01 36.0955 296.01 34.5059C296.01 27.5643 300.581 25.5294 300.581 25.5294C302.886 24.4762 306.841 24.0335 310.953 24.0001H311.054ZM316.148 29.0001C314.454 29.0001 313.172 29.6543 312.324 30.962L311.5 32.3497L310.676 30.962C309.828 29.6544 308.545 29.0002 306.851 29.0001C305.388 29.0001 304.208 29.5166 303.307 30.5245C302.434 31.5326 302 32.8957 302 34.6104V43.0001H305V34.8565C305 33.1402 306.028 32.2687 307.467 32.2686C309.057 32.2686 310 33.303 310 35.3467V40.0001H313V35.3467C313 33.3031 313.942 32.2687 315.532 32.2686C316.97 32.2686 318 33.1402 318 34.8565V43.0001H321V34.6104C321 32.8957 320.565 31.5326 319.692 30.5245C318.792 29.5164 317.612 29.0001 316.148 29.0001Z" fill="#00C900"/>
</svg>
